<svg data-v-29081953="" xmlns="http://www.w3.org/2000/svg" viewBox="0 0 300 300"><!----><defs data-v-29081953=""><!----></defs><rect data-v-29081953="" fill="#F46912" x="0" y="0" width="300px" height="300px" class="logo-background-square"></rect><!----><defs data-v-29081953=""><!----></defs><g data-v-29081953="" id="2085254c-8c29-4687-a4dd-86282840dc0f" fill="#FCB826" stroke="none" transform="matrix(2.3682948962370465,0,0,2.3682948962370465,33.285690770062295,29.9702696689436)"><path d="M93.289 33.664c0-16.253-19.703-29.429-44.007-29.429S5.275 17.411 5.275 33.664c0 14.166 14.969 25.991 34.906 28.795 1.508.915 3.29 1.758 5.124 2.484a29.663 29.663 0 0 0-4.124 5.258c-7.629 12.356-3.172 24.607-2.978 25.122.528 1.409 2.1 2.148 3.512 1.651a2.646 2.646 0 0 0 1.598-3.446c-.038-.102-3.74-10.275 2.538-20.443a24.377 24.377 0 0 1 5.475-6.216c1.75.424 3.287.662 4.357.662 3.968 0 7.327-2.594 8.483-6.178 16.977-4.08 29.123-14.931 29.123-27.689zM49.448 61.445c-1.902-.806-3.568-1.895-3.568-2.973 0-2.097 6.305-3.348 8.402-3.348a3.79 3.79 0 0 1 3.447 2.224 31.326 31.326 0 0 0-8.281 4.097zm14.737-5.517a8.919 8.919 0 0 0-8.502-6.228c-2.518 0-7.617.77-12.002 2.179l-.001-.001-.005.003c-.341.11-.677.223-1.008.341-1.175.248-3.48.384-7.466-.632l-.016.01a4.944 4.944 0 0 1-.135-.043 2.645 2.645 0 0 0-3.399 1.696c-.15.468-.407 1.162-.522 1.798-12.444-3.976-20.948-11.96-20.948-21.172 0-13.181 17.395-23.865 38.852-23.865 21.457 0 38.852 10.685 38.852 23.865 0 10.04-9.539 18.545-23.7 22.049z"></path></g><!----></svg>